# xmcd CD database file
#
# Track frame offsets:
#	150
#	11756
#	27220
#	45529
#	72955
#	88341
#	110946
#	120445
#	140125
#	159113
#	168779
#
# Disc length: 2458 seconds
#
# Revision: 0
# Processed by: cddbd v1.5.1PL2 Copyright (c) Steve Scherf et al.
# Submitted via: CDex 1.51
#
DISCID=8f09980b
DTITLE=Heather Griffin and Good Wood - Warts N' All (Live at the Railway)
DYEAR=2003
DGENRE=Country
TTITLE0=Question
TTITLE1=Lord Knows
TTITLE2=Nothing New
TTITLE3=Life Of The Party
TTITLE4=Better Off Alone
TTITLE5=Grayson
TTITLE6=Flipped Another Rock
TTITLE7=Emmilyne
TTITLE8=Jesse Colter
TTITLE9=Down Time
TTITLE10=Melancholy Vixen
EXTD=YEAR: 2003
EXTT0=
EXTT1=
EXTT2=
EXTT3=
EXTT4=
EXTT5=
EXTT6=
EXTT7=
EXTT8=
EXTT9=
EXTT10=
PLAYORDER=
